<?xml version="1.0" encoding="UTF-8"?>
<svg xmlns="http://www.w3.org/2000/svg" viewBox="0 0 1220 1240" width="1220" height="1240">
  <defs>
    <marker id="arrow" viewBox="0 0 10 10" refX="9" refY="5"
            markerWidth="6" markerHeight="6" orient="auto-start-reverse">
      <path d="M 0 0 L 10 5 L 0 10 z" fill="#475569"/>
    </marker>
  </defs>
  <rect width="1220" height="1240" fill="#f8fafc"/>
  <text x="610" y="25" text-anchor="middle" font-family="Arial" font-size="20" font-weight="bold" fill="#0f172a">
    Ercan Airport Management — ER Diagram
  </text>
  <line x1="440" y1="301.0" x2="520" y2="163.0" stroke="#475569" stroke-width="1.5" marker-end="url(#arrow)"/>
<text x="452.0" y="276.3" font-family="Arial" font-size="11" font-weight="bold" fill="#dc2626">1</text>
<text x="508.0" y="179.7" font-family="Arial" font-size="11" font-weight="bold" fill="#dc2626">1</text>
<rect x="450.0" y="223.0" width="60" height="14" fill="#fef3c7" stroke="#f59e0b" stroke-width="0.5" rx="2"/>
<text x="480.0" y="234.0" text-anchor="middle" font-family="Arial" font-size="10" fill="#111">IS-A</text>
<line x1="840" y1="310.0" x2="760" y2="163.0" stroke="#475569" stroke-width="1.5" marker-end="url(#arrow)"/>
<text x="828.0" y="283.95" font-family="Arial" font-size="11" font-weight="bold" fill="#dc2626">1</text>
<text x="772.0" y="181.05" font-family="Arial" font-size="11" font-weight="bold" fill="#dc2626">1</text>
<rect x="770.0" y="227.5" width="60" height="14" fill="#fef3c7" stroke="#f59e0b" stroke-width="0.5" rx="2"/>
<text x="800.0" y="238.5" text-anchor="middle" font-family="Arial" font-size="10" fill="#111">IS-A</text>
<line x1="160.0" y1="480" x2="320.0" y2="352" stroke="#475569" stroke-width="1.5" marker-end="url(#arrow)"/>
<text x="184.0" y="456.8" font-family="Arial" font-size="11" font-weight="bold" fill="#dc2626">N</text>
<text x="296.0" y="367.2" font-family="Arial" font-size="11" font-weight="bold" fill="#dc2626">1</text>
<rect x="210.0" y="407.0" width="60" height="14" fill="#fef3c7" stroke="#f59e0b" stroke-width="0.5" rx="2"/>
<text x="240.0" y="418.0" text-anchor="middle" font-family="Arial" font-size="10" fill="#111">has</text>
<line x1="280" y1="522.0" x2="440" y2="558.0" stroke="#475569" stroke-width="1.5" marker-end="url(#arrow)"/>
<text x="304.0" y="523.4" font-family="Arial" font-size="11" font-weight="bold" fill="#dc2626">N</text>
<text x="416.0" y="548.6" font-family="Arial" font-size="11" font-weight="bold" fill="#dc2626">1</text>
<rect x="330.0" y="531.0" width="60" height="14" fill="#fef3c7" stroke="#f59e0b" stroke-width="0.5" rx="2"/>
<text x="360.0" y="542.0" text-anchor="middle" font-family="Arial" font-size="10" fill="#111">for</text>
<line x1="840" y1="558.0" x2="680" y2="558.0" stroke="#475569" stroke-width="1.5" marker-end="url(#arrow)"/>
<text x="816.0" y="554.0" font-family="Arial" font-size="11" font-weight="bold" fill="#dc2626">N</text>
<text x="704.0" y="554.0" font-family="Arial" font-size="11" font-weight="bold" fill="#dc2626">1</text>
<rect x="730.0" y="549.0" width="60" height="14" fill="#fef3c7" stroke="#f59e0b" stroke-width="0.5" rx="2"/>
<text x="760.0" y="560.0" text-anchor="middle" font-family="Arial" font-size="10" fill="#111">is_of</text>
<line x1="580" y1="789.0" x2="840" y2="558.0" stroke="#475569" stroke-width="1.5" marker-end="url(#arrow)"/>
<text x="619.0" y="750.35" font-family="Arial" font-size="11" font-weight="bold" fill="#dc2626">N</text>
<text x="801.0" y="588.65" font-family="Arial" font-size="11" font-weight="bold" fill="#dc2626">1</text>
<rect x="680.0" y="664.5" width="60" height="14" fill="#fef3c7" stroke="#f59e0b" stroke-width="0.5" rx="2"/>
<text x="710.0" y="675.5" text-anchor="middle" font-family="Arial" font-size="10" fill="#111">stores</text>
<line x1="340" y1="789.0" x2="280" y2="780.0" stroke="#475569" stroke-width="1.5" marker-end="url(#arrow)"/>
<text x="331.0" y="783.65" font-family="Arial" font-size="11" font-weight="bold" fill="#dc2626">N</text>
<text x="289.0" y="777.35" font-family="Arial" font-size="11" font-weight="bold" fill="#dc2626">1</text>
<rect x="280.0" y="775.5" width="60" height="14" fill="#fef3c7" stroke="#f59e0b" stroke-width="0.5" rx="2"/>
<text x="310.0" y="786.5" text-anchor="middle" font-family="Arial" font-size="10" fill="#111">in</text>
<line x1="1060.0" y1="720" x2="960.0" y2="636" stroke="#475569" stroke-width="1.5" marker-end="url(#arrow)"/>
<text x="1045.0" y="703.4" font-family="Arial" font-size="11" font-weight="bold" fill="#dc2626">N</text>
<text x="975.0" y="644.6" font-family="Arial" font-size="11" font-weight="bold" fill="#dc2626">1</text>
<rect x="980.0" y="669.0" width="60" height="14" fill="#fef3c7" stroke="#f59e0b" stroke-width="0.5" rx="2"/>
<text x="1010.0" y="680.0" text-anchor="middle" font-family="Arial" font-size="10" fill="#111">tests</text>
<line x1="940" y1="807.0" x2="440" y2="301.0" stroke="#475569" stroke-width="1.5" marker-end="url(#arrow)"/>
<text x="865.0" y="727.1" font-family="Arial" font-size="11" font-weight="bold" fill="#dc2626">N</text>
<text x="515.0" y="372.90000000000003" font-family="Arial" font-size="11" font-weight="bold" fill="#dc2626">1</text>
<rect x="660.0" y="545.0" width="60" height="14" fill="#fef3c7" stroke="#f59e0b" stroke-width="0.5" rx="2"/>
<text x="690.0" y="556.0" text-anchor="middle" font-family="Arial" font-size="10" fill="#111">by</text>
<line x1="940" y1="807.0" x2="880" y2="789.0" stroke="#475569" stroke-width="1.5" marker-end="url(#arrow)"/>
<text x="931.0" y="800.3" font-family="Arial" font-size="11" font-weight="bold" fill="#dc2626">N</text>
<text x="889.0" y="787.7" font-family="Arial" font-size="11" font-weight="bold" fill="#dc2626">1</text>
<rect x="880.0" y="789.0" width="60" height="14" fill="#fef3c7" stroke="#f59e0b" stroke-width="0.5" rx="2"/>
<text x="910.0" y="800.0" text-anchor="middle" font-family="Arial" font-size="10" fill="#111">uses</text>
<line x1="280" y1="1056.0" x2="840" y2="558.0" stroke="#475569" stroke-width="1.5" marker-end="url(#arrow)"/>
<text x="364.0" y="977.3" font-family="Arial" font-size="11" font-weight="bold" fill="#dc2626">N</text>
<text x="756.0" y="628.7" font-family="Arial" font-size="11" font-weight="bold" fill="#dc2626">1</text>
<rect x="530.0" y="798.0" width="60" height="14" fill="#fef3c7" stroke="#f59e0b" stroke-width="0.5" rx="2"/>
<text x="560.0" y="809.0" text-anchor="middle" font-family="Arial" font-size="10" fill="#111">repairs</text>
<line x1="160.0" y1="960" x2="320.0" y2="352" stroke="#475569" stroke-width="1.5" marker-end="url(#arrow)"/>
<text x="184.0" y="864.8" font-family="Arial" font-size="11" font-weight="bold" fill="#dc2626">N</text>
<text x="296.0" y="439.20000000000005" font-family="Arial" font-size="11" font-weight="bold" fill="#dc2626">1</text>
<rect x="210.0" y="647.0" width="60" height="14" fill="#fef3c7" stroke="#f59e0b" stroke-width="0.5" rx="2"/>
<text x="240.0" y="658.0" text-anchor="middle" font-family="Arial" font-size="10" fill="#111">by</text>
<line x1="480.0" y1="960" x2="960.0" y2="636" stroke="#475569" stroke-width="1.5" marker-end="url(#arrow)"/>
<text x="552.0" y="907.4" font-family="Arial" font-size="11" font-weight="bold" fill="#dc2626">N</text>
<text x="888.0" y="680.6" font-family="Arial" font-size="11" font-weight="bold" fill="#dc2626">1</text>
<rect x="690.0" y="789.0" width="60" height="14" fill="#fef3c7" stroke="#f59e0b" stroke-width="0.5" rx="2"/>
<text x="720.0" y="800.0" text-anchor="middle" font-family="Arial" font-size="10" fill="#111">log_for</text>
<line x1="480.0" y1="960" x2="320.0" y2="352" stroke="#475569" stroke-width="1.5" marker-end="url(#arrow)"/>
<text x="456.0" y="864.8" font-family="Arial" font-size="11" font-weight="bold" fill="#dc2626">N</text>
<text x="344.0" y="439.20000000000005" font-family="Arial" font-size="11" font-weight="bold" fill="#dc2626">1</text>
<rect x="370.0" y="647.0" width="60" height="14" fill="#fef3c7" stroke="#f59e0b" stroke-width="0.5" rx="2"/>
<text x="400.0" y="658.0" text-anchor="middle" font-family="Arial" font-size="10" fill="#111">by</text>
<line x1="1060.0" y1="960" x2="960.0" y2="636" stroke="#475569" stroke-width="1.5" marker-end="url(#arrow)"/>
<text x="1045.0" y="907.4" font-family="Arial" font-size="11" font-weight="bold" fill="#dc2626">N</text>
<text x="975.0" y="680.6" font-family="Arial" font-size="11" font-weight="bold" fill="#dc2626">1</text>
<rect x="980.0" y="789.0" width="60" height="14" fill="#fef3c7" stroke="#f59e0b" stroke-width="0.5" rx="2"/>
<text x="1010.0" y="800.0" text-anchor="middle" font-family="Arial" font-size="10" fill="#111">uses</text>
<line x1="1060.0" y1="960" x2="960.0" y2="370" stroke="#475569" stroke-width="1.5" marker-end="url(#arrow)"/>
<text x="1045.0" y="867.5" font-family="Arial" font-size="11" font-weight="bold" fill="#dc2626">N</text>
<text x="975.0" y="454.5" font-family="Arial" font-size="11" font-weight="bold" fill="#dc2626">1</text>
<rect x="980.0" y="656.0" width="60" height="14" fill="#fef3c7" stroke="#f59e0b" stroke-width="0.5" rx="2"/>
<text x="1010.0" y="667.0" text-anchor="middle" font-family="Arial" font-size="10" fill="#111">managed</text>
<line x1="940" y1="1065.0" x2="920" y2="1011.0" stroke="#475569" stroke-width="1.5" marker-end="url(#arrow)"/>
<text x="937.0" y="1052.9" font-family="Arial" font-size="11" font-weight="bold" fill="#dc2626">N</text>
<text x="923.0" y="1015.1" font-family="Arial" font-size="11" font-weight="bold" fill="#dc2626">1</text>
<rect x="900.0" y="1029.0" width="60" height="14" fill="#fef3c7" stroke="#f59e0b" stroke-width="0.5" rx="2"/>
<text x="930.0" y="1040.0" text-anchor="middle" font-family="Arial" font-size="10" fill="#111">at</text>
  <rect x="520" y="40" width="240" height="34" fill="#2563eb" rx="4"/>
<text x="640.0" y="62" text-anchor="middle" font-family="Arial" font-size="14" font-weight="bold" fill="white">Employee</text>
<rect x="520" y="74" width="240" height="212" fill="white" stroke="#2563eb" stroke-width="2" rx="0"/>
<text x="530" y="92" font-family="Courier New" font-size="11" font-weight="bold" fill="#111">🔑 ssn</text>
<line x1="525" y1="98" x2="755" y2="98" stroke="#ccc" stroke-width="1"/>
<text x="530" y="112" font-family="Courier New" font-size="10.5" fill="#333">• first_name</text>
<text x="530" y="130" font-family="Courier New" font-size="10.5" fill="#333">• last_name</text>
<text x="530" y="148" font-family="Courier New" font-size="10.5" fill="#333">• union_membership_no</text>
<text x="530" y="166" font-family="Courier New" font-size="10.5" fill="#333">• date_of_birth</text>
<text x="530" y="184" font-family="Courier New" font-size="10.5" fill="#333">• hire_date</text>
<text x="530" y="202" font-family="Courier New" font-size="10.5" fill="#333">• salary</text>
<text x="530" y="220" font-family="Courier New" font-size="10.5" fill="#333">• phone</text>
<text x="530" y="238" font-family="Courier New" font-size="10.5" fill="#333">• email</text>
<text x="530" y="256" font-family="Courier New" font-size="10.5" fill="#333">• address</text>
<text x="530" y="274" font-family="Courier New" font-size="10.5" fill="#333">• employee_type</text>
<rect x="200" y="250" width="240" height="34" fill="#7c3aed" rx="4"/>
<text x="320.0" y="272" text-anchor="middle" font-family="Arial" font-size="14" font-weight="bold" fill="white">Technician</text>
<rect x="200" y="284" width="240" height="68" fill="white" stroke="#7c3aed" stroke-width="2" rx="0"/>
<text x="210" y="302" font-family="Courier New" font-size="11" font-weight="bold" fill="#111">🔑 ssn (FK)</text>
<line x1="205" y1="308" x2="435" y2="308" stroke="#ccc" stroke-width="1"/>
<text x="210" y="322" font-family="Courier New" font-size="10.5" fill="#333">• certification_level</text>
<text x="210" y="340" font-family="Courier New" font-size="10.5" fill="#333">• years_experience</text>
<rect x="840" y="250" width="240" height="34" fill="#7c3aed" rx="4"/>
<text x="960.0" y="272" text-anchor="middle" font-family="Arial" font-size="14" font-weight="bold" fill="white">TrafficController</text>
<rect x="840" y="284" width="240" height="86" fill="white" stroke="#7c3aed" stroke-width="2" rx="0"/>
<text x="850" y="302" font-family="Courier New" font-size="11" font-weight="bold" fill="#111">🔑 ssn (FK)</text>
<line x1="845" y1="308" x2="1075" y2="308" stroke="#ccc" stroke-width="1"/>
<text x="850" y="322" font-family="Courier New" font-size="10.5" fill="#333">• last_medical_exam_date</text>
<text x="850" y="340" font-family="Courier New" font-size="10.5" fill="#333">• license_no</text>
<text x="850" y="358" font-family="Courier New" font-size="10.5" fill="#333">• shift</text>
<rect x="40" y="480" width="240" height="34" fill="#059669" rx="4"/>
<text x="160.0" y="502" text-anchor="middle" font-family="Arial" font-size="14" font-weight="bold" fill="white">TechnicianExpertise</text>
<rect x="40" y="514" width="240" height="50" fill="white" stroke="#059669" stroke-width="2" rx="0"/>
<text x="50" y="532" font-family="Courier New" font-size="11" font-weight="bold" fill="#111">🔑 ssn, model_no</text>
<line x1="45" y1="538" x2="275" y2="538" stroke="#ccc" stroke-width="1"/>
<text x="50" y="552" font-family="Courier New" font-size="10.5" fill="#333">• certified_date</text>
<rect x="440" y="480" width="240" height="34" fill="#dc2626" rx="4"/>
<text x="560.0" y="502" text-anchor="middle" font-family="Arial" font-size="14" font-weight="bold" fill="white">PlaneModel</text>
<rect x="440" y="514" width="240" height="122" fill="white" stroke="#dc2626" stroke-width="2" rx="0"/>
<text x="450" y="532" font-family="Courier New" font-size="11" font-weight="bold" fill="#111">🔑 model_no</text>
<line x1="445" y1="538" x2="675" y2="538" stroke="#ccc" stroke-width="1"/>
<text x="450" y="552" font-family="Courier New" font-size="10.5" fill="#333">• manufacturer</text>
<text x="450" y="570" font-family="Courier New" font-size="10.5" fill="#333">• model_name</text>
<text x="450" y="588" font-family="Courier New" font-size="10.5" fill="#333">• max_capacity</text>
<text x="450" y="606" font-family="Courier New" font-size="10.5" fill="#333">• max_range_km</text>
<text x="450" y="624" font-family="Courier New" font-size="10.5" fill="#333">• fuel_capacity_liters</text>
<rect x="840" y="480" width="240" height="34" fill="#dc2626" rx="4"/>
<text x="960.0" y="502" text-anchor="middle" font-family="Arial" font-size="14" font-weight="bold" fill="white">Airplane</text>
<rect x="840" y="514" width="240" height="122" fill="white" stroke="#dc2626" stroke-width="2" rx="0"/>
<text x="850" y="532" font-family="Courier New" font-size="11" font-weight="bold" fill="#111">🔑 plane_no</text>
<line x1="845" y1="538" x2="1075" y2="538" stroke="#ccc" stroke-width="1"/>
<text x="850" y="552" font-family="Courier New" font-size="10.5" fill="#333">• model_no (FK)</text>
<text x="850" y="570" font-family="Courier New" font-size="10.5" fill="#333">• capacity</text>
<text x="850" y="588" font-family="Courier New" font-size="10.5" fill="#333">• manufacture_date</text>
<text x="850" y="606" font-family="Courier New" font-size="10.5" fill="#333">• registration_country</text>
<text x="850" y="624" font-family="Courier New" font-size="10.5" fill="#333">• status</text>
<rect x="40" y="720" width="240" height="34" fill="#ea580c" rx="4"/>
<text x="160.0" y="742" text-anchor="middle" font-family="Arial" font-size="14" font-weight="bold" fill="white">Hangar</text>
<rect x="40" y="754" width="240" height="86" fill="white" stroke="#ea580c" stroke-width="2" rx="0"/>
<text x="50" y="772" font-family="Courier New" font-size="11" font-weight="bold" fill="#111">🔑 hangar_no</text>
<line x1="45" y1="778" x2="275" y2="778" stroke="#ccc" stroke-width="1"/>
<text x="50" y="792" font-family="Courier New" font-size="10.5" fill="#333">• location</text>
<text x="50" y="810" font-family="Courier New" font-size="10.5" fill="#333">• capacity</text>
<text x="50" y="828" font-family="Courier New" font-size="10.5" fill="#333">• hangar_type</text>
<rect x="340" y="720" width="240" height="34" fill="#059669" rx="4"/>
<text x="460.0" y="742" text-anchor="middle" font-family="Arial" font-size="14" font-weight="bold" fill="white">HangarStay</text>
<rect x="340" y="754" width="240" height="104" fill="white" stroke="#059669" stroke-width="2" rx="0"/>
<text x="350" y="772" font-family="Courier New" font-size="11" font-weight="bold" fill="#111">🔑 stay_id</text>
<line x1="345" y1="778" x2="575" y2="778" stroke="#ccc" stroke-width="1"/>
<text x="350" y="792" font-family="Courier New" font-size="10.5" fill="#333">• plane_no (FK)</text>
<text x="350" y="810" font-family="Courier New" font-size="10.5" fill="#333">• hangar_no (FK)</text>
<text x="350" y="828" font-family="Courier New" font-size="10.5" fill="#333">• in_datetime</text>
<text x="350" y="846" font-family="Courier New" font-size="10.5" fill="#333">• out_datetime</text>
<rect x="640" y="720" width="240" height="34" fill="#0891b2" rx="4"/>
<text x="760.0" y="742" text-anchor="middle" font-family="Arial" font-size="14" font-weight="bold" fill="white">Test</text>
<rect x="640" y="754" width="240" height="104" fill="white" stroke="#0891b2" stroke-width="2" rx="0"/>
<text x="650" y="772" font-family="Courier New" font-size="11" font-weight="bold" fill="#111">🔑 test_id</text>
<line x1="645" y1="778" x2="875" y2="778" stroke="#ccc" stroke-width="1"/>
<text x="650" y="792" font-family="Courier New" font-size="10.5" fill="#333">• test_name</text>
<text x="650" y="810" font-family="Courier New" font-size="10.5" fill="#333">• max_score</text>
<text x="650" y="828" font-family="Courier New" font-size="10.5" fill="#333">• description</text>
<text x="650" y="846" font-family="Courier New" font-size="10.5" fill="#333">• frequency_months</text>
<rect x="940" y="720" width="240" height="34" fill="#059669" rx="4"/>
<text x="1060.0" y="742" text-anchor="middle" font-family="Arial" font-size="14" font-weight="bold" fill="white">TestEvent</text>
<rect x="940" y="754" width="240" height="140" fill="white" stroke="#059669" stroke-width="2" rx="0"/>
<text x="950" y="772" font-family="Courier New" font-size="11" font-weight="bold" fill="#111">🔑 test_event_id</text>
<line x1="945" y1="778" x2="1175" y2="778" stroke="#ccc" stroke-width="1"/>
<text x="950" y="792" font-family="Courier New" font-size="10.5" fill="#333">• plane_no (FK)</text>
<text x="950" y="810" font-family="Courier New" font-size="10.5" fill="#333">• technician_ssn (FK)</text>
<text x="950" y="828" font-family="Courier New" font-size="10.5" fill="#333">• test_id (FK)</text>
<text x="950" y="846" font-family="Courier New" font-size="10.5" fill="#333">• test_date</text>
<text x="950" y="864" font-family="Courier New" font-size="10.5" fill="#333">• hours_spent</text>
<text x="950" y="882" font-family="Courier New" font-size="10.5" fill="#333">• score</text>
<rect x="40" y="960" width="240" height="34" fill="#059669" rx="4"/>
<text x="160.0" y="982" text-anchor="middle" font-family="Arial" font-size="14" font-weight="bold" fill="white">Repair</text>
<rect x="40" y="994" width="240" height="158" fill="white" stroke="#059669" stroke-width="2" rx="0"/>
<text x="50" y="1012" font-family="Courier New" font-size="11" font-weight="bold" fill="#111">🔑 repair_id</text>
<line x1="45" y1="1018" x2="275" y2="1018" stroke="#ccc" stroke-width="1"/>
<text x="50" y="1032" font-family="Courier New" font-size="10.5" fill="#333">• plane_no (FK)</text>
<text x="50" y="1050" font-family="Courier New" font-size="10.5" fill="#333">• technician_ssn (FK)</text>
<text x="50" y="1068" font-family="Courier New" font-size="10.5" fill="#333">• repair_date</text>
<text x="50" y="1086" font-family="Courier New" font-size="10.5" fill="#333">• problem_description</text>
<text x="50" y="1104" font-family="Courier New" font-size="10.5" fill="#333">• parts_cost</text>
<text x="50" y="1122" font-family="Courier New" font-size="10.5" fill="#333">• labor_hours</text>
<text x="50" y="1140" font-family="Courier New" font-size="10.5" fill="#333">• status</text>
<rect x="360" y="960" width="240" height="34" fill="#059669" rx="4"/>
<text x="480.0" y="982" text-anchor="middle" font-family="Arial" font-size="14" font-weight="bold" fill="white">MaintenanceLog</text>
<rect x="360" y="994" width="240" height="140" fill="white" stroke="#059669" stroke-width="2" rx="0"/>
<text x="370" y="1012" font-family="Courier New" font-size="11" font-weight="bold" fill="#111">🔑 log_id</text>
<line x1="365" y1="1018" x2="595" y2="1018" stroke="#ccc" stroke-width="1"/>
<text x="370" y="1032" font-family="Courier New" font-size="10.5" fill="#333">• plane_no (FK)</text>
<text x="370" y="1050" font-family="Courier New" font-size="10.5" fill="#333">• technician_ssn (FK)</text>
<text x="370" y="1068" font-family="Courier New" font-size="10.5" fill="#333">• maintenance_date</text>
<text x="370" y="1086" font-family="Courier New" font-size="10.5" fill="#333">• maintenance_type</text>
<text x="370" y="1104" font-family="Courier New" font-size="10.5" fill="#333">• notes</text>
<text x="370" y="1122" font-family="Courier New" font-size="10.5" fill="#333">• next_due_date</text>
<rect x="680" y="960" width="240" height="34" fill="#ea580c" rx="4"/>
<text x="800.0" y="982" text-anchor="middle" font-family="Arial" font-size="14" font-weight="bold" fill="white">Gate</text>
<rect x="680" y="994" width="240" height="68" fill="white" stroke="#ea580c" stroke-width="2" rx="0"/>
<text x="690" y="1012" font-family="Courier New" font-size="11" font-weight="bold" fill="#111">🔑 gate_no</text>
<line x1="685" y1="1018" x2="915" y2="1018" stroke="#ccc" stroke-width="1"/>
<text x="690" y="1032" font-family="Courier New" font-size="10.5" fill="#333">• terminal</text>
<text x="690" y="1050" font-family="Courier New" font-size="10.5" fill="#333">• gate_type</text>
<rect x="940" y="960" width="240" height="34" fill="#059669" rx="4"/>
<text x="1060.0" y="982" text-anchor="middle" font-family="Arial" font-size="14" font-weight="bold" fill="white">Flight</text>
<rect x="940" y="994" width="240" height="176" fill="white" stroke="#059669" stroke-width="2" rx="0"/>
<text x="950" y="1012" font-family="Courier New" font-size="11" font-weight="bold" fill="#111">🔑 flight_id</text>
<line x1="945" y1="1018" x2="1175" y2="1018" stroke="#ccc" stroke-width="1"/>
<text x="950" y="1032" font-family="Courier New" font-size="10.5" fill="#333">• plane_no (FK)</text>
<text x="950" y="1050" font-family="Courier New" font-size="10.5" fill="#333">• controller_ssn (FK)</text>
<text x="950" y="1068" font-family="Courier New" font-size="10.5" fill="#333">• gate_no (FK)</text>
<text x="950" y="1086" font-family="Courier New" font-size="10.5" fill="#333">• origin</text>
<text x="950" y="1104" font-family="Courier New" font-size="10.5" fill="#333">• destination</text>
<text x="950" y="1122" font-family="Courier New" font-size="10.5" fill="#333">• departure_datetime</text>
<text x="950" y="1140" font-family="Courier New" font-size="10.5" fill="#333">• arrival_datetime</text>
<text x="950" y="1158" font-family="Courier New" font-size="10.5" fill="#333">• flight_status</text>
  <g transform="translate(40, 1170)">
    <text x="0" y="0" font-family="Arial" font-size="12" font-weight="bold" fill="#0f172a">Legend:</text>
    <rect x="55" y="-11" width="14" height="14" fill="#2563eb"/>
    <text x="74" y="0" font-family="Arial" font-size="11" fill="#111">Supertype</text>
    <rect x="150" y="-11" width="14" height="14" fill="#7c3aed"/>
    <text x="169" y="0" font-family="Arial" font-size="11" fill="#111">Subtype (IS-A)</text>
    <rect x="270" y="-11" width="14" height="14" fill="#dc2626"/>
    <text x="289" y="0" font-family="Arial" font-size="11" fill="#111">Core entity</text>
    <rect x="370" y="-11" width="14" height="14" fill="#059669"/>
    <text x="389" y="0" font-family="Arial" font-size="11" fill="#111">Relationship / weak entity</text>
    <rect x="540" y="-11" width="14" height="14" fill="#ea580c"/>
    <text x="559" y="0" font-family="Arial" font-size="11" fill="#111">Supporting entity</text>
    <rect x="670" y="-11" width="14" height="14" fill="#0891b2"/>
    <text x="689" y="0" font-family="Arial" font-size="11" fill="#111">Reference catalog</text>
    <text x="820" y="0" font-family="Arial" font-size="11" fill="#dc2626" font-weight="bold">N : 1</text>
    <text x="858" y="0" font-family="Arial" font-size="11" fill="#111">= cardinality</text>
  </g>
</svg>